
<svg version="1.1" id="home_pattern" xmlns="http://www.w3.org/2000/svg" xmlns:xlink="http://www.w3.org/1999/xlink" x="0px" y="0px"
	 viewBox="0 0 1500 600" enable-background="new 0 0 1500 600" xml:space="preserve">
<g id="Layer_1_PAT" display="none">
	<linearGradient id="SVGID_1_PAT" gradientUnits="userSpaceOnUse" x1="121" y1="450.0898" x2="1379" y2="450.0898">
		<stop  offset="0" style="stop-color:#1D62F0"/>
		<stop  offset="1" style="stop-color:#1AD6FD"/>
	</linearGradient>
	<path display="inline" opacity="0.6" fill="url(#SVGID_1_PAT)" d="M1379,600.18c0,0-149.5-52-168.5-135s-36.5-160-81-165
		s-91,95.5-107,134.5s-53,113.5-134,133s-190,13-392-92.5s-247-115-302-62.5S121,600.18,121,600.18H1379z"/>
	<path display="inline" opacity="0.75" fill="#6EBEFC" d="M1500.319,600.18c0,0-45.131-66-76.631-143.5s-62-130-91-130.5
		s-83.5,163-83.5,163s-37.5,133-196.5,47s-353-25-353-25s-296,80-414-111.5s-159.5-203.5-189-175S1.058,600.18,1.058,600.18
		H1500.319z"/>
	<path display="inline" opacity="0.6" fill="#26EEC1" d="M1495.063,600.18c0,0-98.04-97.667-117.374-217
		s-32.667-194.327-84.667-205.83s-123.338,141.83-152.005,230.497s-140.666,264.001-410.666,136.667S239.023,414.513,177.023,445.18
		S7.69,600.18,7.69,600.18H1495.063z"/>
</g>
<g id="Layer_1_copy_PAT">
	<linearGradient id="SVGID_2_PAT" gradientUnits="userSpaceOnUse" x1="30.9688" y1="412.1094" x2="1607.3008" y2="412.1094">
		<stop  offset="0" style="stop-color:#1D62F0"/>
		<stop  offset="1" style="stop-color:#1AD6FD"/>
	</linearGradient>
	<path opacity="0.6" fill="url(#SVGID_2_PAT)" d="M1607.301,600.18c0,0-187.33-65.159-211.138-169.161
		c-23.81-104.003-45.736-200.488-101.497-206.753S1180.639,343.932,1160.59,392.8c-20.049,48.869-66.412,142.221-167.909,166.656
		c-101.496,24.434-238.077,16.29-491.193-115.907c-253.115-132.196-309.502-144.1-378.419-78.314
		C54.15,431.019,30.969,600.18,30.969,600.18H1607.301z"/>
	<path opacity="0.75" fill="#6EBEFC" d="M1759.319,600.18c0,0-56.552-82.701-96.022-179.813
		c-39.471-97.11-77.688-162.896-114.027-163.522c-36.338-0.626-104.629,204.246-104.629,204.246s-46.989,166.656-246.224,58.895
		c-199.234-107.763-442.325-31.327-442.325-31.327S385.19,588.902,237.331,348.944C89.472,108.985,37.47,93.949,0.505,129.661
		c-36.965,35.711-119.83,470.519-119.83,470.519H1759.319z"/>
	<path opacity="0.6" fill="#26EEC1" d="M1752.733,600.18c0,0-122.849-122.381-147.075-271.911
		c-24.226-149.53-40.934-243.501-106.091-257.914c-65.159-14.414-154.548,177.72-190.47,288.823
		c-35.921,111.104-176.261,330.806-514.584,171.25C456.192,370.873,178.857,367.53,101.169,405.958
		C23.48,444.385-111.013,600.18-111.013,600.18H1752.733z"/>
</g>
</svg>