<?xml version="1.0" encoding="utf-8"?>
<!-- Generator: Adobe Illustrator 16.0.0, SVG Export Plug-In . SVG Version: 6.00 Build 0)  -->
<!DOCTYPE svg PUBLIC "-//W3C//DTD SVG 1.1//EN" "http://www.w3.org/Graphics/SVG/1.1/DTD/svg11.dtd">
<svg version="1.1" xmlns="http://www.w3.org/2000/svg" xmlns:xlink="http://www.w3.org/1999/xlink" x="0px" y="0px" width="905px"
	 height="720px" viewBox="0 0 905 720" enable-background="new 0 0 905 720" xml:space="preserve">
<g id="bg">
	<rect id="bg_2_" x="0.004" fill="#282828" width="904.996" height="720"/>
</g>
<g id="Columns">
	<g id="Columns_Base_1_">
		<rect id="_x31__18_" x="178.229" y="69.979" opacity="0.12" fill="#FFFFFF" width="50" height="580"/>
		<rect id="_x32__17_" x="258.229" y="69.979" opacity="0.12" fill="#FFFFFF" width="50" height="580"/>
		<rect id="_x33__5_" x="338.229" y="69.979" opacity="0.12" fill="#FFFFFF" width="50" height="580"/>
		<rect id="_x34__2_" x="418.229" y="69.979" opacity="0.12" fill="#FFFFFF" width="50" height="580"/>
		<rect id="_x35__2_" x="498.229" y="69.979" opacity="0.12" fill="#FFFFFF" width="50" height="580"/>
		<rect id="_x36__2_" x="578.229" y="69.979" opacity="0.12" fill="#FFFFFF" width="50" height="580"/>
	</g>
</g>
<g id="Header">
	<g id="bar_1_">
		<path fill="#1274E7" d="M628.229,128.465c0,2.761-2.238,5-5,5h-440c-2.761,0-5-2.239-5-5v-15c0-2.761,2.239-5,5-5h440
			c2.762,0,5,2.239,5,5V128.465z"/>
	</g>
	<g id="Top_Bar_1">
		<g>
			<g>
				<defs>
					<path id="_x31__13_" d="M218.229,128.465c0,2.761-2.239,5-5,5h-30c-2.761,0-5-2.239-5-5v-15c0-2.761,2.239-5,5-5h30
						c2.761,0,5,2.239,5,5V128.465z"/>
				</defs>
				<clipPath id="_x31__1_">
					<use xlink:href="#_x31__13_"  overflow="visible"/>
				</clipPath>
				<rect id="_x32__14_" x="178.229" y="108.465" clip-path="url(#_x31__1_)" fill="#1068CF" width="30" height="25"/>
			</g>
		</g>
		<g>
			<g>
				<defs>
					<path id="_x31__12_" d="M218.229,128.465c0,2.761-2.239,5-5,5h-30c-2.761,0-5-2.239-5-5v-15c0-2.761,2.239-5,5-5h30
						c2.761,0,5,2.239,5,5V128.465z"/>
				</defs>
				<clipPath id="_x31__3_">
					<use xlink:href="#_x31__12_"  overflow="visible"/>
				</clipPath>
				<rect id="_x32__13_" x="178.229" y="108.465" clip-path="url(#_x31__3_)" fill="#1068CF" width="30" height="25"/>
			</g>
		</g>
		<g>
			<g>
				<defs>
					<path id="_x31__9_" d="M218.229,128.465c0,2.761-2.239,5-5,5h-30c-2.761,0-5-2.239-5-5v-15c0-2.761,2.239-5,5-5h30
						c2.761,0,5,2.239,5,5V128.465z"/>
				</defs>
				<clipPath id="_x31__6_">
					<use xlink:href="#_x31__9_"  overflow="visible"/>
				</clipPath>
			</g>
		</g>
	</g>
	<g>
		<path fill="#FFFFFF" d="M628.229,260.465c0,2.761-2.238,5-5,5h-440c-2.761,0-5-2.239-5-5v-102c0-2.761,2.239-5,5-5h440
			c2.762,0,5,2.239,5,5V260.465z"/>
	</g>
	<path id="_x31__10_" fill="#EEEEEE" d="M588.229,209.465c0,2.761-2.238,5-5,5h-30c-2.762,0-5-2.239-5-5l0,0c0-2.761,2.238-5,5-5h30
		C585.991,204.465,588.229,206.704,588.229,209.465L588.229,209.465z"/>
	<path id="_x32__10_" fill="#EEEEEE" d="M528.229,209.465c0,2.761-2.238,5-5,5h-30c-2.762,0-5-2.239-5-5l0,0c0-2.761,2.238-5,5-5h30
		C525.991,204.465,528.229,206.704,528.229,209.465L528.229,209.465z"/>
	<g id="tabs_2_">
		<path id="_x33__2_" fill="#EEEEEE" d="M468.229,209.465c0,2.761-2.239,5-5,5h-30c-2.761,0-5-2.239-5-5l0,0c0-2.761,2.239-5,5-5h30
			C465.99,204.465,468.229,206.704,468.229,209.465L468.229,209.465z"/>
	</g>
	<g id="Header_Content">
		<rect x="218.229" y="194.465" fill="#999999" width="8" height="8"/>
		<rect x="229.229" y="194.465" fill="#999999" width="8" height="8"/>
		<rect x="218.229" y="205.465" fill="#999999" width="8" height="8"/>
		<rect x="218.229" y="216.465" fill="#999999" width="8" height="8"/>
		<rect x="229.229" y="205.465" fill="#999999" width="8" height="8"/>
		<rect x="240.229" y="194.465" fill="#999999" width="8" height="8"/>
	</g>
</g>
<g id="Element_1">
	<g id="Top_Bar_Blue_7_">
		<path fill="#1274E7" d="M388.229,325.465c0,2.762-2.239,5-5,5h-200c-2.761,0-5-2.238-5-5v-15c0-2.761,2.239-5,5-5h200
			c2.761,0,5,2.239,5,5V325.465z"/>
	</g>
	<g id="Dark_Blue_3_">
		<defs>
			<path id="_x31__15_" d="M218.229,325.465c0,2.761-2.239,5-5,5h-30c-2.761,0-5-2.239-5-5v-15c0-2.761,2.239-5,5-5h30
				c2.761,0,5,2.239,5,5V325.465z"/>
		</defs>
		<clipPath id="_x31__8_">
			<use xlink:href="#_x31__15_"  overflow="visible"/>
		</clipPath>
		<rect id="_x32__12_" x="178.229" y="305.465" clip-path="url(#_x31__8_)" fill="#1068CF" width="30" height="25"/>
	</g>
	<g id="bg_19_">
		<path fill="#FFFFFF" d="M388.229,555.466c0,2.761-2.239,5-5,5h-200c-2.761,0-5-2.239-5-5v-200c0-2.762,2.239-5,5-5h200
			c2.761,0,5,2.238,5,5V555.466z"/>
	</g>
	<path id="Title_4_" fill="#EEEEEE" d="M338.229,390.466c0,2.762-2.239,5-5,5h-120c-2.761,0-5-2.238-5-5v-5c0-2.762,2.239-5,5-5h120
		c2.761,0,5,2.238,5,5V390.466z"/>
	<path id="t1_4_" fill="#F4F4F4" d="M368.229,417.466c0,2.761-2.239,5-5,5h-150c-2.761,0-5-2.239-5-5l0,0c0-2.762,2.239-5,5-5h150
		C365.991,412.466,368.229,414.704,368.229,417.466L368.229,417.466z"/>
	<path id="t2_4_" fill="#F4F4F4" d="M320.229,439.466c0,2.761-2.239,5-5,5h-102c-2.761,0-5-2.239-5-5l0,0c0-2.762,2.239-5,5-5h102
		C317.991,434.466,320.229,436.704,320.229,439.466L320.229,439.466z"/>
	<path id="btn_4_" fill="#F47721" d="M298.229,491.466c0,2.761-2.239,5-5,5h-80c-2.761,0-5-2.239-5-5v-20c0-2.762,2.239-5,5-5h80
		c2.761,0,5,2.238,5,5V491.466z"/>
	<path id="btn_text_4_" fill="#FBA467" d="M278.229,481.466c0,1.381-1.119,2.5-2.5,2.5h-45c-1.381,0-2.5-1.119-2.5-2.5l0,0
		c0-1.381,1.119-2.5,2.5-2.5h45C277.11,478.966,278.229,480.085,278.229,481.466L278.229,481.466z"/>
	<path id="Bottm-text_4_" fill="#E6E7E8" d="M348.229,527.466c0,2.761-2.239,5-5,5h-130c-2.761,0-5-2.239-5-5l0,0
		c0-2.762,2.239-5,5-5h130C345.991,522.466,348.229,524.704,348.229,527.466L348.229,527.466z"/>
</g>
<g id="Element_2">
	<g id="Top_Bar_Blue_2_">
		<path fill="#1274E7" d="M628.229,325.465c0,2.762-2.239,5-5,5h-200c-2.761,0-5-2.238-5-5v-15c0-2.761,2.239-5,5-5h200
			c2.761,0,5,2.239,5,5V325.465z"/>
	</g>
	<g id="Dark_Blue_2_">
		<defs>
			<path id="_x31__5_" d="M458.229,325.465c0,2.761-2.238,5-5,5h-30c-2.761,0-5-2.239-5-5v-15c0-2.761,2.239-5,5-5h30
				c2.762,0,5,2.239,5,5V325.465z"/>
		</defs>
		<clipPath id="_x31__14_">
			<use xlink:href="#_x31__5_"  overflow="visible"/>
		</clipPath>
		<rect id="_x32__5_" x="418.229" y="305.465" clip-path="url(#_x31__14_)" fill="#1068CF" width="30" height="25"/>
	</g>
	<g id="bg_4_">
		<path fill="#FFFFFF" d="M628.229,555.466c0,2.761-2.239,5-5,5h-200c-2.761,0-5-2.239-5-5v-200c0-2.762,2.239-5,5-5h200
			c2.761,0,5,2.238,5,5V555.466z"/>
	</g>
	<path id="Title_3_" fill="#EEEEEE" d="M578.229,390.466c0,2.762-2.239,5-5,5H453.229c-2.761,0-5-2.238-5-5v-5c0-2.762,2.239-5,5-5
		h120.001c2.761,0,5,2.238,5,5V390.466z"/>
	<path id="t1_3_" fill="#F4F4F4" d="M608.229,417.466c0,2.761-2.239,5-5,5H453.229c-2.761,0-5-2.239-5-5l0,0c0-2.762,2.239-5,5-5
		h150.001C605.99,412.466,608.229,414.704,608.229,417.466L608.229,417.466z"/>
	<path id="t2_3_" fill="#F4F4F4" d="M560.229,439.466c0,2.761-2.239,5-5,5H453.229c-2.761,0-5-2.239-5-5l0,0c0-2.762,2.239-5,5-5
		h102.001C557.99,434.466,560.229,436.704,560.229,439.466L560.229,439.466z"/>
	<path id="btn_3_" fill="#00C853" d="M538.229,491.466c0,2.761-2.239,5-5,5h-80.001c-2.761,0-5-2.239-5-5v-20c0-2.762,2.239-5,5-5
		h80.001c2.761,0,5,2.238,5,5V491.466z"/>
	<path id="btn_text_3_" fill="#18E26C" d="M518.229,481.466c0,1.381-1.119,2.5-2.5,2.5h-45c-1.381,0-2.501-1.119-2.501-2.5l0,0
		c0-1.381,1.12-2.5,2.501-2.5h45C517.11,478.966,518.229,480.085,518.229,481.466L518.229,481.466z"/>
	<path id="Bottm-text_3_" fill="#E6E7E8" d="M588.229,527.466c0,2.761-2.239,5-5,5H453.229c-2.761,0-5-2.239-5-5l0,0
		c0-2.762,2.239-5,5-5h130.001C585.99,522.466,588.229,524.704,588.229,527.466L588.229,527.466z"/>
</g>
<g id="Left_sidebar">
	<g id="Blue_square">
		<path id="bg_13_" display="none" fill="#1274E7" d="M45,40c0,2.761-2.239,5-5,5H5c-2.761,0-5-2.239-5-5V5c0-2.761,2.239-5,5-5h35
			c2.761,0,5,2.239,5,5V40z"/>
		<rect id="bg_square" fill="#1274E7" width="45" height="45"/>
		<g id="pixfort-logo">
			<rect id="_x31__7_" x="11" y="11" fill="#FFFFFF" width="6" height="6"/>
			<rect id="_x32__7_" x="20" y="11" fill="#FFFFFF" width="6" height="6"/>
			<rect id="_x33__1_" x="29" y="11" fill="#FFFFFF" width="6" height="6"/>
			<rect id="_x34__1_" x="11" y="20" fill="#FFFFFF" width="6" height="6"/>
			<rect id="_x35__1_" x="20" y="20" fill="#FFFFFF" width="6" height="6"/>
			<rect id="_x36__1_" x="11" y="29" fill="#FFFFFF" width="6" height="6"/>
		</g>
	</g>
	<g id="square_bottom_left">
		<rect id="bg_square_3_" y="675" fill="#333333" width="45" height="45"/>
		<g id="pixfort-logo_copy">
		</g>
		<g id="Layer_1_2_">
			<path fill="#686868" d="M23,688c-5.52,0-10,4.48-10,10s4.48,10,10,10c5.52,0,10-4.48,10-10S28.52,688,23,688z M24,705h-2v-2h2
				V705z M26.07,697.25l-0.9,0.92C24.45,698.9,24,699.5,24,701h-2v-0.5c0-1.1,0.45-2.1,1.17-2.83l1.24-1.26
				c0.369-0.36,0.59-0.86,0.59-1.41c0-1.1-0.9-2-2-2c-1.1,0-2,0.9-2,2h-2c0-2.21,1.79-4,4-4s4,1.79,4,4
				C27,695.88,26.641,696.68,26.07,697.25z"/>
		</g>
	</g>
	<g id="Dark_Bar">
		<path id="bg_1_" fill="#484848" d="M45,670c0,2.762-2.239,5-5,5H5c-2.761,0-5-2.238-5-5V80c0-2.761,2.239-5,5-5h35
			c2.761,0,5,2.239,5,5V670z"/>
		<g id="bg_square_1_">
			<rect x="0.004" y="45" fill="#383838" width="44.991" height="630"/>
		</g>
		<g id="_x31__4_">
			<path id="icon" fill="#686868" d="M13.5,69h8V59h-8V69z M13.5,77h8v-6h-8V77z M23.5,77h8V67h-8V77z M23.5,59v6h8v-6H23.5z"/>
			<rect id="line" y="90" fill="#333333" width="45" height="1"/>
		</g>
		<g id="_x32__4_">
			<path id="icon_18_" fill="#686868" d="M17.5,120.5h10v-15h-10V120.5z M12.5,118.5h4v-11h-4V118.5z M28.5,107.5v11h4v-11H28.5z"/>
			<rect id="line_10_" y="135" fill="#333333" width="45" height="1"/>
		</g>
		<g id="_x33__14_">
			<path id="icon_1_" fill="#686868" d="M22.49,164.54l-7.37-5.729l-1.62,1.26l9,7l9-7l-1.63-1.271L22.49,164.54z M22.5,162
				l7.359-5.73L31.5,155l-9-7l-9,7l1.63,1.27L22.5,162z"/>
			<rect id="line_2_" y="180" fill="#333333" width="45" height="1"/>
		</g>
		<g id="_x34__12_">
			<path id="icon_15_" fill="#686868" d="M29.932,203.98c0.041-0.32,0.07-0.641,0.07-0.98s-0.029-0.66-0.07-0.98l2.11-1.65
				c0.19-0.15,0.239-0.42,0.12-0.64l-2-3.46c-0.12-0.22-0.391-0.3-0.61-0.22l-2.489,1c-0.521-0.4-1.08-0.73-1.69-0.98l-0.38-2.65
				c-0.03-0.24-0.24-0.42-0.49-0.42h-4c-0.25,0-0.46,0.18-0.49,0.42l-0.38,2.65c-0.61,0.25-1.17,0.59-1.69,0.98l-2.49-1
				c-0.23-0.09-0.49,0-0.61,0.22l-2,3.46c-0.13,0.22-0.07,0.49,0.12,0.64l2.11,1.65c-0.04,0.32-0.07,0.65-0.07,0.98
				s0.03,0.66,0.07,0.98l-2.11,1.649c-0.19,0.149-0.24,0.42-0.12,0.64l2,3.461c0.12,0.22,0.39,0.299,0.61,0.22l2.49-1
				c0.52,0.399,1.08,0.729,1.69,0.979l0.38,2.65c0.03,0.24,0.24,0.42,0.49,0.42h4c0.25,0,0.46-0.18,0.49-0.42l0.38-2.65
				c0.61-0.25,1.17-0.59,1.69-0.979l2.489,1c0.229,0.09,0.49,0,0.61-0.22l2-3.461c0.119-0.22,0.07-0.49-0.12-0.64L29.932,203.98z
				 M22.502,206.5c-1.93,0-3.5-1.57-3.5-3.5c0-1.93,1.57-3.5,3.5-3.5c1.93,0,3.5,1.57,3.5,3.5
				C26.002,204.93,24.432,206.5,22.502,206.5z"/>
			<rect id="line_7_" y="225" fill="#333333" width="45" height="1"/>
		</g>
		<g id="_x35__12_">
			<rect id="line_5_" y="584" fill="#333333" width="45" height="1"/>
			<path id="icon_6_" fill="#686868" d="M22.765,603.035c-2.65,0-5.05,0.99-6.9,2.6l-3.6-3.6v9h9l-3.62-3.62
				c1.39-1.159,3.16-1.88,5.12-1.88c3.54,0,6.55,2.311,7.6,5.5l2.371-0.779C31.345,606.064,27.415,603.035,22.765,603.035z"/>
		</g>
		<g id="_x36__8_">
			<rect id="line_3_" y="628.5" fill="#333333" width="45" height="1"/>
			<path id="icon_12_" fill="#686868" d="M28.628,651.1c-1.851-1.609-4.25-2.6-6.9-2.6c-4.65,0-8.58,3.029-9.96,7.221l2.36,0.779
				c1.05-3.189,4.05-5.5,7.6-5.5c1.95,0,3.73,0.721,5.12,1.88l-3.62,3.62h9v-9L28.628,651.1z"/>
		</g>
	</g>
	<g id="line_h">
		<rect x="43.996" y="45" fill="#333333" width="1" height="630"/>
	</g>
</g>
<g id="Bottom_bar">
	<rect id="bg_8_" x="45" y="675" fill="#383838" width="860" height="45"/>
	<g id="code">
		<path fill="none" d="M65,686h24v24H65V686z"/>
		<path fill="#686868" d="M69.4,702.6l-4.6-4.6l4.6-4.6L68,692l-6,6l6,6L69.4,702.6z M74.6,702.6L79.2,698l-4.601-4.6L76,692l6,6
			l-6,6L74.6,702.6z"/>
		<path fill="#575757" d="M162,698c0,2.762-2.239,5-5,5H97c-2.761,0-5-2.238-5-5l0,0c0-2.762,2.239-5,5-5h60
			C159.761,693,162,695.238,162,698L162,698z"/>
		<rect x="177" y="675" fill="#333333" width="1" height="45"/>
	</g>
	<g id="css">
		<path fill="none" d="M196,686h24v24h-24V686z"/>
		<path fill="#575757" d="M293,698c0,2.762-2.239,5-5,5h-60c-2.761,0-5-2.238-5-5l0,0c0-2.762,2.239-5,5-5h60
			C290.761,693,293,695.238,293,698L293,698z"/>
		<rect x="308" y="675" fill="#333333" width="1" height="45"/>
		<g id="csss">
			<g>
				<path fill="#686868" d="M200.883,707.048l9.098-3.02L213,688.953h-17.042l-0.648,3.363h13.657l-0.425,2.147h-13.678
					l-0.669,3.364h13.658l-0.75,3.851l-5.511,1.803l-4.762-1.803l0.325-1.683h-3.363L193,704.028L200.883,707.048"/>
			</g>
		</g>
	</g>
	<g id="popup">
		<path fill="none" d="M327,686h24v24h-24V686z"/>
		<path fill="#575757" d="M424,698c0,2.762-2.239,5-5,5h-60c-2.761,0-5-2.238-5-5l0,0c0-2.762,2.239-5,5-5h60
			C421.761,693,424,695.238,424,698L424,698z"/>
		<rect x="439" y="675" fill="#333333" width="1" height="45"/>
		<g id="Layer_1_1_">
			<path fill="none" d="M322,685.5h24v24h-24V685.5z"/>
			<path fill="#686868" d="M326,691.5h-2v14c0,1.1,0.9,2,2,2h14v-2h-14V691.5z M342,687.5h-12c-1.1,0-2,0.9-2,2v12c0,1.1,0.9,2,2,2
				h12c1.1,0,2-0.9,2-2v-12C344,688.4,343.1,687.5,342,687.5z M341,696.5h-10v-2h10V696.5z M337,700.5h-6v-2h6V700.5z M341,692.5
				h-10v-2h10V692.5z"/>
		</g>
	</g>
	<g id="laptop_1_">
		<g id="bg_grey">
			<rect x="741.167" y="675" fill="#424242" width="54" height="45"/>
		</g>
		<g id="icon_5_">
			<defs>
				<rect id="SVGID_1_" x="756.167" y="687.277" width="24" height="24"/>
			</defs>
			<clipPath id="SVGID_2_">
				<use xlink:href="#SVGID_1_"  overflow="visible"/>
			</clipPath>
			<path clip-path="url(#SVGID_2_)" fill="#FFFFFF" d="M776.167,705.277c1.1,0,2-0.9,2-2v-10c0-1.1-0.9-2-2-2h-16c-1.1,0-2,0.9-2,2
				v10c0,1.1,0.9,2,2,2h-4v2h24v-2H776.167z M760.167,693.277h16v10h-16V693.277z"/>
		</g>
		<rect id="_x7C_" x="740.167" y="675" fill="#333333" width="1" height="45"/>
	</g>
	<g id="tablet">
		<g id="icon_10_">
			<path fill="none" d="M811.167,687.277h24v24h-24V687.277z"/>
			<path fill="#686868" d="M832.167,691.277h-18c-1.1,0-2,0.9-2,2v12c0,1.1,0.9,2,2,2h18c1.1,0,1.99-0.9,1.99-2l0.01-12
				C834.167,692.178,833.267,691.277,832.167,691.277z M830.167,705.277h-14v-12h14V705.277z"/>
		</g>
		<rect id="_x7C__1_" x="795.167" y="675" fill="#333333" width="1" height="45"/>
	</g>
	<g id="mobile">
		<g id="icon_7_">
			<path fill="#686868" d="M883.167,688.287l-10-0.01c-1.1,0-2,0.9-2,2v18c0,1.1,0.9,2,2,2h10c1.1,0,2-0.9,2-2v-18
				C885.167,689.178,884.267,688.287,883.167,688.287z M883.167,706.277h-10v-14h10V706.277z"/>
		</g>
		<rect id="_x7C__2_" x="850.167" y="675" fill="#333333" width="1" height="45"/>
		<rect x="741.167" y="717" fill="#1274E7" width="54" height="3"/>
	</g>
	<g id="line_v">
		<rect x="44.996" y="675" fill="#333333" width="860" height="1"/>
	</g>
</g>
<g id="Section_settings">
	<g id="bg_10_">
		<path fill="#444444" d="M148.229,193.465c0,2.761-2.239,5-5,5h-40c-2.761,0-5-2.239-5-5v-80c0-2.761,2.239-5,5-5h40
			c2.761,0,5,2.239,5,5V193.465z"/>
		<path fill="#363636" d="M148.229,143.632c0,2.761-2.239,5-5,5h-40c-2.761,0-5-2.239-5-5v-30c0-2.761,2.239-5,5-5h40
			c2.761,0,5,2.239,5,5V143.632z"/>
		<rect x="98.229" y="138.632" fill="#363636" width="50" height="10"/>
		<path id="ic1_1_" fill="#AAAAAA" d="M121.229,125.632h4v-3h3l-5-5l-5,5h3V125.632z M120.229,126.632h-3v-3l-5,5l5,5v-3h3V126.632z
			 M134.229,128.632l-5-5v3h-3v4h3v3L134.229,128.632z M125.229,131.632h-4v3h-3l5,5l5-5h-3V131.632z"/>
		<path id="icon_4_" fill="#888888" d="M118.072,163.868c0.031-0.242,0.053-0.482,0.053-0.736s-0.022-0.494-0.053-0.736l1.583-1.237
			c0.142-0.111,0.178-0.315,0.09-0.479l-1.501-2.596c-0.088-0.164-0.293-0.224-0.457-0.164l-1.867,0.749
			c-0.391-0.3-0.812-0.547-1.268-0.733l-0.285-1.988c-0.023-0.179-0.182-0.315-0.368-0.315h-3c-0.188,0-0.344,0.136-0.367,0.315
			l-0.285,1.988c-0.458,0.187-0.879,0.441-1.268,0.733l-1.867-0.749c-0.174-0.068-0.368,0-0.459,0.164l-1.5,2.596
			c-0.098,0.164-0.053,0.368,0.091,0.479l1.582,1.237c-0.03,0.242-0.052,0.489-0.052,0.736s0.022,0.494,0.052,0.736l-1.582,1.237
			c-0.144,0.111-0.181,0.315-0.091,0.479l1.5,2.597c0.091,0.164,0.292,0.223,0.459,0.164l1.867-0.749
			c0.389,0.299,0.809,0.546,1.268,0.733l0.285,1.989c0.023,0.179,0.179,0.315,0.367,0.315h3c0.187,0,0.345-0.136,0.368-0.315
			l0.285-1.989c0.457-0.187,0.877-0.441,1.268-0.733l1.867,0.749c0.171,0.068,0.368,0,0.457-0.164l1.501-2.597
			c0.088-0.164,0.052-0.368-0.09-0.479L118.072,163.868z M112.5,165.758c-1.449,0-2.626-1.18-2.626-2.626
			c0-1.447,1.177-2.626,2.626-2.626c1.446,0,2.624,1.179,2.624,2.626C115.124,164.578,113.946,165.758,112.5,165.758z"/>
		<path fill="#888888" d="M128.094,157.86h-1.364v10.907c0,0.751,0.613,1.364,1.364,1.364h10.907v-1.364h-10.907V157.86z
			 M140.365,155.132h-9.545c-0.75,0-1.362,0.613-1.362,1.364v9.545c0,0.749,0.613,1.362,1.362,1.362h9.545
			c0.751,0,1.364-0.613,1.364-1.362v-9.545C141.729,155.745,141.116,155.132,140.365,155.132z M140.365,166.041h-9.545v-9.545h9.545
			V166.041z"/>
		<path fill="#888888" d="M111.019,188.974l-3.91-3.91l3.91-3.91l-1.188-1.19l-5.101,5.101l5.101,5.101L111.019,188.974z
			 M115.44,188.974l3.911-3.91l-3.911-3.91l1.189-1.19l5.101,5.101l-5.101,5.101L115.44,188.974z"/>
		<path fill="#888888" d="M130.563,190.077c0,0.854,0.699,1.555,1.555,1.555h6.223c0.855,0,1.555-0.701,1.555-1.555v-9.333h-9.332
			V190.077z M140.674,178.409h-2.722l-0.778-0.777h-3.89l-0.778,0.777h-2.722v1.557h10.89V178.409z"/>
	</g>
</g>
<g id="Top_bar">
	<rect id="bg_square_2_" x="44.996" fill="#383838" width="860" height="45"/>
	<rect id="line_v_top" x="45" y="44" fill="#333333" width="860" height="1"/>
	<path id="_x31__29_" fill="#575757" d="M179.875,24c0,2.761-2.239,5-5,5h-102c-2.761,0-5-2.239-5-5v-4c0-2.761,2.239-5,5-5h102
		c2.761,0,5,2.239,5,5V24z"/>
	<path id="_x32__24_" fill="#575757" d="M234.875,24.5c0,2.761-2.239,5-5,5h-35c-2.761,0-5-2.239-5-5v-5c0-2.761,2.239-5,5-5h35
		c2.761,0,5,2.239,5,5V24.5z"/>
	<path id="btn1" fill="#575757" d="M714,32c0,2.761-2.238,5-5,5h-19c-2.762,0-5-2.239-5-5V13c0-2.761,2.238-5,5-5h19
		c2.762,0,5,2.239,5,5V32z"/>
	<path id="icon_8_" fill="#888888" d="M700.69,14.5c0,0,0.489,1.99,0.489,3.6c0,1.551-1.01,2.801-2.56,2.801s-2.72-1.25-2.72-2.801
		l0.02-0.27c-1.51,1.81-2.42,4.13-2.42,6.67c0,3.31,2.69,6,6,6s6-2.69,6-6C705.5,20.45,703.62,16.85,700.69,14.5z M699.41,28
		c-1.34,0-2.42-1.05-2.42-2.35c0-1.221,0.779-2.07,2.109-2.341c1.33-0.27,2.7-0.909,3.46-1.93c0.29,0.97,0.45,1.99,0.45,3.03
		C703.01,26.39,701.39,28,699.41,28z"/>
	<path id="btn2" fill="#575757" d="M799,32c0,2.761-2.238,5-5,5h-65c-2.762,0-5-2.239-5-5V13c0-2.761,2.238-5,5-5h65
		c2.762,0,5,2.239,5,5V32z"/>
	<path id="btn3" fill="#575757" d="M895,32c0,2.761-2.238,5-5,5h-76c-2.762,0-5-2.239-5-5V13c0-2.761,2.238-5,5-5h76
		c2.762,0,5,2.239,5,5V32z"/>
</g>
<g id="Right_sidebar">
	<path id="bg_15_" display="none" fill="#484848" d="M903,670c0,2.762-2.238,5-5,5H688c-2.762,0-5-2.238-5-5V80c0-2.761,2.238-5,5-5
		h210c2.762,0,5,2.239,5,5V670z"/>
	<g id="bg_square_4_">
		<rect x="685" y="44.979" fill="#484848" width="220" height="630.021"/>
	</g>
	<g id="Blue_bar">
		<path id="blue-bg_2_" display="none" fill="#1274E7" d="M905,79.979c0,2.761-2.238,5-5,5H690c-2.762,0-5-2.239-5-5v-30
			c0-2.761,2.238-5,5-5h210c2.762,0,5,2.239,5,5V79.979z"/>
		<rect id="bg_blue_2_" x="685" y="44.979" fill="#1274E7" width="220" height="40"/>
		<path fill="#71ADF2" d="M755,64.979c0,2.209-1.791,4-4,4h-42c-2.209,0-4-1.791-4-4l0,0c0-2.209,1.791-4,4-4h42
			C753.209,60.979,755,62.77,755,64.979L755,64.979z"/>
	</g>
	<g id="dark_tab">
		<rect x="795" y="84.979" fill="#333333" width="110" height="40"/>
		<path fill="#444444" d="M875,104.979c0,2.209-1.791,4-4,4h-42c-2.209,0-4-1.791-4-4l0,0c0-2.209,1.791-4,4-4h42
			C873.209,100.979,875,102.77,875,104.979L875,104.979z"/>
	</g>
	<g id="active_tab">
		<rect x="685" y="121.979" fill="#1274E7" width="110" height="3"/>
		<path id="t_2_" fill="#555555" d="M765,102.979c0,2.209-1.791,4-4,4h-42c-2.209,0-4-1.791-4-4l0,0c0-2.209,1.791-4,4-4h42
			C763.209,98.979,765,100.77,765,102.979L765,102.979z"/>
	</g>
	<g id="Text">
		<path fill="#666666" d="M767,147.479c0,1.381-1.119,2.5-2.5,2.5h-55c-1.381,0-2.5-1.119-2.5-2.5l0,0c0-1.381,1.119-2.5,2.5-2.5h55
			C765.881,144.979,767,146.098,767,147.479L767,147.479z"/>
		<path fill="#666666" d="M887,147.479c0,2.761-2.238,5-5,5l0,0c-2.762,0-5-2.239-5-5l0,0c0-2.761,2.238-5,5-5l0,0
			C884.762,142.479,887,144.718,887,147.479L887,147.479z"/>
	</g>
	<g id="bg_26_">
		<path id="_x31__2_" fill="#333333" d="M887,280.536c0,2.761-2.238,5-5,5H712c-2.762,0-5-2.239-5-5v-110c0-2.761,2.238-5,5-5h170
			c2.762,0,5,2.239,5,5V280.536z"/>
		<path id="_x32__2_" fill="#1274E7" d="M797,280.536c0,2.761-2.239,5-5,5h-80c-2.762,0-5-2.239-5-5v-110c0-2.761,2.238-5,5-5h80
			c2.761,0,5,2.239,5,5V280.536z"/>
		<rect x="787" y="165.536" fill="#1274E7" width="10" height="120"/>
		<path fill="#484848" d="M867.082,256.036c0,1.381-1.119,2.5-2.5,2.5h-45c-1.381,0-2.5-1.119-2.5-2.5l0,0
			c0-1.381,1.119-2.5,2.5-2.5h45C865.963,253.536,867.082,254.655,867.082,256.036L867.082,256.036z"/>
		<path fill="#61A7F8" d="M776.514,256.036c0,1.381-1.119,2.5-2.5,2.5h-45c-1.381,0-2.5-1.119-2.5-2.5l0,0
			c0-1.381,1.119-2.5,2.5-2.5h45C775.395,253.536,776.514,254.655,776.514,256.036L776.514,256.036z"/>
	</g>
	<g id="normal">
		<g id="page_2_">
			<g id="bg_6_">
				<polyline fill="#FFFFFF" fill-opacity="0.15" points="721.514,199.411 781.514,199.411 781.514,232.786 765.846,232.786 
					765.764,218.723 736.637,218.723 736.637,232.786 721.514,232.786 721.514,199.786 				"/>
			</g>
			<g>
				<rect x="722.264" y="199.059" fill="none" width="58.5" height="32.977"/>
				<path fill="#FFFFFF" d="M780.014,199.809v31.477h-57v-31.477H780.014 M781.514,198.309h-60v34.477h60V198.309L781.514,198.309z"
					/>
			</g>
		</g>
		<g id="Header_4_">
			<g>
				<rect x="722.264" y="188.536" fill="#FFFFFF" fill-opacity="0" width="58.5" height="10.5"/>
				<path fill="#FFFFFF" d="M780.014,189.286v9h-57v-9H780.014 M781.514,187.786h-60v12h60V187.786L781.514,187.786z"/>
			</g>
			<g>
				<path fill="#FFFFFF" d="M727.486,194.894h1.434v0.492h-2.074v-3.199h0.641V194.894z"/>
				<path fill="#FFFFFF" d="M731.879,194.073c0,0.395-0.123,0.719-0.371,0.975c-0.247,0.256-0.57,0.383-0.967,0.383
					c-0.395,0-0.716-0.128-0.962-0.385s-0.368-0.581-0.368-0.974v-0.575c0-0.391,0.122-0.716,0.367-0.973
					c0.246-0.256,0.564-0.385,0.959-0.385c0.397,0,0.721,0.128,0.97,0.385c0.249,0.258,0.373,0.582,0.373,0.973L731.879,194.073
					L731.879,194.073z M731.24,193.493c0-0.249-0.063-0.453-0.188-0.613c-0.124-0.16-0.297-0.239-0.516-0.239
					c-0.217,0-0.386,0.08-0.506,0.239c-0.121,0.16-0.182,0.364-0.182,0.613v0.58c0,0.254,0.061,0.46,0.182,0.62
					s0.292,0.239,0.51,0.239c0.221,0,0.391-0.08,0.516-0.239c0.123-0.16,0.184-0.366,0.184-0.62V193.493L731.24,193.493z"/>
				<path fill="#FFFFFF" d="M734.839,194.948c-0.101,0.13-0.248,0.244-0.446,0.34c-0.197,0.096-0.453,0.144-0.766,0.144
					c-0.387,0-0.703-0.121-0.949-0.364s-0.369-0.559-0.369-0.947v-0.668c0-0.387,0.12-0.702,0.359-0.946
					c0.238-0.244,0.546-0.366,0.921-0.366c0.391,0,0.69,0.093,0.897,0.278c0.209,0.186,0.309,0.433,0.302,0.742l-0.005,0.014h-0.604
					c0-0.17-0.05-0.302-0.148-0.397c-0.098-0.095-0.24-0.142-0.428-0.142c-0.196,0-0.354,0.076-0.475,0.228
					c-0.119,0.152-0.18,0.347-0.18,0.586v0.672c0,0.242,0.061,0.439,0.184,0.591c0.123,0.152,0.289,0.229,0.494,0.229
					c0.152,0,0.273-0.016,0.361-0.046c0.09-0.031,0.158-0.07,0.207-0.117v-0.62h-0.615v-0.444h1.259V194.948z"/>
				<path fill="#FFFFFF" d="M737.973,194.073c0,0.395-0.124,0.719-0.371,0.975c-0.248,0.256-0.57,0.383-0.967,0.383
					s-0.717-0.128-0.963-0.385s-0.369-0.581-0.369-0.974v-0.575c0-0.391,0.123-0.716,0.369-0.973
					c0.244-0.256,0.564-0.385,0.959-0.385c0.396,0,0.721,0.128,0.969,0.385c0.249,0.258,0.373,0.582,0.373,0.973V194.073
					L737.973,194.073z M737.332,193.493c0-0.249-0.063-0.453-0.186-0.613c-0.125-0.16-0.298-0.239-0.517-0.239
					c-0.216,0-0.386,0.08-0.507,0.239c-0.12,0.16-0.182,0.364-0.182,0.613v0.58c0,0.254,0.062,0.46,0.184,0.62
					c0.121,0.16,0.291,0.239,0.51,0.239s0.391-0.08,0.514-0.239c0.125-0.16,0.186-0.366,0.186-0.62v-0.58H737.332z"/>
			</g>
			<rect x="771.014" y="193.036" fill="#FFFFFF" width="4.5" height="1.5"/>
			<rect x="763.514" y="193.036" fill="#FFFFFF" width="4.5" height="1.5"/>
			<rect x="756.014" y="193.036" fill="#FFFFFF" width="4.5" height="1.5"/>
			<g>
				<path fill="#FFFFFF" d="M765.846,219.286v12h-28.5v-12H765.846 M765.846,217.786h-28.5c-0.828,0-1.5,0.672-1.5,1.5v12
					c0,0.828,0.672,1.5,1.5,1.5h28.5c0.828,0,1.5-0.672,1.5-1.5v-12C767.346,218.458,766.675,217.786,765.846,217.786
					L765.846,217.786z"/>
			</g>
			<g id="text_4_">
				<rect x="741.764" y="204.286" fill="#FFFFFF" width="19.5" height="2.25"/>
				<rect x="738.764" y="209.536" fill="#FFFFFF" width="25.5" height="0.75"/>
				<rect x="743.264" y="212.536" fill="#FFFFFF" width="16.5" height="0.75"/>
			</g>
		</g>
	</g>
	<g>
		<path fill="#7B7B7B" d="M870.5,190.036v42h-57v-42H870.5 M872,188.536h-60v45h60V188.536L872,188.536z"/>
	</g>
	<g id="Header_2_">
		<g>
			<path fill="#7B7B7B" d="M817.973,195.644h1.432v0.492h-2.073v-3.199h0.642V195.644z"/>
			<path fill="#7B7B7B" d="M822.365,194.823c0,0.395-0.124,0.719-0.371,0.975c-0.248,0.256-0.57,0.383-0.967,0.383
				c-0.396,0-0.717-0.128-0.963-0.385s-0.368-0.581-0.368-0.974v-0.575c0-0.391,0.122-0.716,0.368-0.973
				c0.245-0.256,0.564-0.385,0.959-0.385c0.396,0,0.721,0.128,0.969,0.385c0.249,0.258,0.373,0.582,0.373,0.973V194.823
				L822.365,194.823z M821.725,194.243c0-0.249-0.062-0.453-0.186-0.613c-0.125-0.16-0.297-0.239-0.517-0.239
				c-0.216,0-0.386,0.08-0.506,0.239c-0.121,0.16-0.182,0.364-0.182,0.613v0.58c0,0.254,0.061,0.46,0.183,0.62
				c0.121,0.16,0.291,0.239,0.51,0.239c0.22,0,0.391-0.08,0.515-0.239s0.185-0.366,0.185-0.62v-0.58H821.725z"/>
			<path fill="#7B7B7B" d="M825.324,195.698c-0.1,0.13-0.248,0.244-0.445,0.34c-0.198,0.096-0.453,0.144-0.766,0.144
				c-0.387,0-0.703-0.121-0.949-0.364s-0.369-0.559-0.369-0.947v-0.668c0-0.387,0.119-0.702,0.359-0.946
				c0.238-0.244,0.545-0.366,0.92-0.366c0.391,0,0.691,0.093,0.898,0.278c0.209,0.186,0.309,0.433,0.301,0.742l-0.004,0.014h-0.604
				c0-0.17-0.05-0.302-0.147-0.397s-0.24-0.142-0.428-0.142c-0.197,0-0.355,0.076-0.475,0.228c-0.121,0.152-0.18,0.347-0.18,0.586
				v0.672c0,0.242,0.061,0.439,0.184,0.591c0.123,0.152,0.288,0.229,0.494,0.229c0.152,0,0.273-0.016,0.361-0.046
				c0.089-0.031,0.156-0.07,0.206-0.117v-0.62h-0.615v-0.444h1.259V195.698z"/>
			<path fill="#7B7B7B" d="M828.458,194.823c0,0.395-0.124,0.719-0.37,0.975c-0.248,0.256-0.57,0.383-0.967,0.383
				s-0.717-0.128-0.963-0.385s-0.369-0.581-0.369-0.974v-0.575c0-0.391,0.123-0.716,0.368-0.973
				c0.245-0.256,0.565-0.385,0.959-0.385c0.397,0,0.72,0.128,0.97,0.385c0.248,0.258,0.373,0.582,0.373,0.973L828.458,194.823
				L828.458,194.823z M827.818,194.243c0-0.249-0.063-0.453-0.188-0.613c-0.123-0.16-0.297-0.239-0.516-0.239
				c-0.217,0-0.385,0.08-0.506,0.239s-0.182,0.364-0.182,0.613v0.58c0,0.254,0.061,0.46,0.183,0.62s0.292,0.239,0.511,0.239
				s0.391-0.08,0.514-0.239c0.124-0.16,0.184-0.366,0.184-0.62V194.243L827.818,194.243z"/>
		</g>
		<rect x="861.5" y="193.786" fill="#7B7B7B" width="4.5" height="1.5"/>
		<rect x="854" y="193.786" fill="#7B7B7B" width="4.5" height="1.5"/>
		<rect x="846.5" y="193.786" fill="#7B7B7B" width="4.5" height="1.5"/>
		<g>
			<path fill="#7B7B7B" d="M856.332,220.036v12h-28.501v-12H856.332 M856.332,218.536h-28.501c-0.827,0-1.5,0.672-1.5,1.5v12
				c0,0.828,0.673,1.5,1.5,1.5h28.501c0.828,0,1.5-0.672,1.5-1.5v-12C857.832,219.208,857.16,218.536,856.332,218.536
				L856.332,218.536z"/>
		</g>
		<g id="text_2_">
			<rect x="832.25" y="205.036" fill="#7B7B7B" width="19.5" height="2.25"/>
			<rect x="829.25" y="210.286" fill="#7B7B7B" width="25.5" height="0.75"/>
			<rect x="833.75" y="213.286" fill="#7B7B7B" width="16.5" height="0.75"/>
		</g>
	</g>
	<g id="Format">
		<path id="text" fill="#666666" d="M767,308.036c0,1.381-1.119,2.5-2.5,2.5h-55c-1.381,0-2.5-1.119-2.5-2.5l0,0
			c0-1.381,1.119-2.5,2.5-2.5h55C765.881,305.536,767,306.655,767,308.036L767,308.036z"/>
		<g id="box">
		</g>
		<path fill="#666666" d="M887,308.036c0,2.761-2.239,5-5,5l0,0c-2.762,0-5-2.239-5-5l0,0c0-2.762,2.238-5,5-5l0,0
			C884.761,303.036,887,305.274,887,308.036L887,308.036z"/>
		<path fill="#333333" d="M887,370.536c0,2.761-2.239,5-5,5H712c-2.762,0-5-2.239-5-5v-40c0-2.762,2.238-5,5-5h170
			c2.761,0,5,2.238,5,5V370.536z"/>
		<rect x="767" y="325.536" fill="#1274E7" width="60" height="50"/>
		<path fill="#666666" d="M744,339.39l-1.41-1.41l-5.59,5.59l-5.59-5.59l-1.41,1.41l5.59,5.59l-5.59,5.59l1.41,1.41l5.59-5.59
			l5.59,5.59l1.41-1.41l-5.59-5.59L744,339.39z"/>
		<path fill="#484848" d="M752,362.479c0,1.381-1.119,2.5-2.5,2.5h-25c-1.381,0-2.5-1.119-2.5-2.5l0,0c0-1.381,1.119-2.5,2.5-2.5h25
			C750.881,359.979,752,361.099,752,362.479L752,362.479z"/>
		<path fill="#484848" d="M871.75,362.479c0,1.381-1.119,2.5-2.5,2.5h-25c-1.381,0-2.5-1.119-2.5-2.5l0,0c0-1.381,1.119-2.5,2.5-2.5
			h25C870.631,359.979,871.75,361.099,871.75,362.479L871.75,362.479z"/>
		<path fill="#5DA3F5" d="M812,362.479c0,1.381-1.119,2.5-2.5,2.5h-25c-1.381,0-2.5-1.119-2.5-2.5l0,0c0-1.381,1.119-2.5,2.5-2.5h25
			C810.881,359.979,812,361.099,812,362.479L812,362.479z"/>
		<path fill="#FFFFFF" d="M793,343.979h3v10h2v-10h3l-4-4L793,343.979z M789,335.979v2h16v-2H789z"/>
		<path fill="#666666" d="M853.75,335.979l-4,3.99h3v7.01h2v-7.01h3L853.75,335.979z M860.75,349.989v-7.01h-2v7.01h-3l4,3.99
			l4-3.99H860.75z"/>
	</g>
	<g id="note">
		<path fill="#555555" d="M887,430.536c0,2.761-2.238,5-5,5H712c-2.762,0-5-2.239-5-5v-30c0-2.762,2.238-5,5-5h170
			c2.762,0,5,2.238,5,5V430.536z"/>
		<path fill="none" d="M722,403.536h24v24h-24V403.536z"/>
		<path fill="#888888" d="M728,420.536h2v-6h-2V420.536z M729,405.536c-5.52,0-10,4.479-10,10c0,5.52,4.48,10,10,10s10-4.48,10-10
			C739,410.016,734.52,405.536,729,405.536z M729,423.536c-4.41,0-8-3.59-8-8s3.59-8,8-8s8,3.59,8,8S733.41,423.536,729,423.536z
			 M728,412.536h2v-2h-2V412.536z"/>
		<path fill="#777777" d="M824.014,415.536c0,1.381-1.119,2.5-2.5,2.5h-70c-1.381,0-2.5-1.119-2.5-2.5l0,0
			c0-1.381,1.119-2.5,2.5-2.5h70C822.895,413.036,824.014,414.155,824.014,415.536L824.014,415.536z"/>
		<path fill="#777777" d="M869.25,415.536c0,1.381-1.119,2.5-2.5,2.5h-30c-1.381,0-2.5-1.119-2.5-2.5l0,0c0-1.381,1.119-2.5,2.5-2.5
			h30C868.131,413.036,869.25,414.155,869.25,415.536L869.25,415.536z"/>
	</g>
	<g id="btn1_1_">
		<path fill="#00C853" d="M791.514,480.536c0,2.761-2.238,5-5,5h-75c-2.762,0-5-2.239-5-5v-20c0-2.762,2.238-5,5-5h75
			c2.762,0,5,2.238,5,5V480.536z"/>
		<path fill="#38EC82" d="M769.014,470.536c0,1.381-1.119,2.5-2.5,2.5h-35c-1.381,0-2.5-1.119-2.5-2.5l0,0
			c0-1.381,1.119-2.5,2.5-2.5h35C767.895,468.036,769.014,469.155,769.014,470.536L769.014,470.536z"/>
	</g>
	<g id="btn2_1_">
		<path fill="#555555" d="M886.514,480.536c0,2.761-2.238,5-5,5h-75c-2.762,0-5-2.239-5-5v-20c0-2.762,2.238-5,5-5h75
			c2.762,0,5,2.238,5,5V480.536z"/>
		<path fill="#777777" d="M864.014,470.536c0,1.381-1.119,2.5-2.5,2.5h-35c-1.381,0-2.5-1.119-2.5-2.5l0,0
			c0-1.381,1.119-2.5,2.5-2.5h35C862.895,468.036,864.014,469.155,864.014,470.536L864.014,470.536z"/>
	</g>
</g>
</svg>