<?xml version="1.0" encoding="utf-8"?>
<!-- Generator: Adobe Illustrator 19.1.0, SVG Export Plug-In . SVG Version: 6.00 Build 0)  -->
<svg version="1.1" id="Capa_1" xmlns="http://www.w3.org/2000/svg" xmlns:xlink="http://www.w3.org/1999/xlink" x="0px" y="0px"
	 viewBox="0 0 28 45" style="enable-background:new 0 0 28 45;" xml:space="preserve">
<style type="text/css">
	.st0{fill:#FFFFFF;}
</style>
<path class="st0" d="M25.2,6.6c0,2.3-1.9,4.2-4.2,4.2s-4.2-1.9-4.2-4.2s1.9-4.2,4.2-4.2S25.2,4.2,25.2,6.6z M14,13.3V2.4
	c-4,1.1-8,5-8,9.6v7H2v4h4h4l-4,1.6v18.5c4-1.2,8-5.8,8-11c0-0.1,0-4.5,0-9.1h4v-4h-4C14,15.8,14,13.3,14,13.3z"/>
</svg>
