<?xml version="1.0" encoding="utf-8"?>
<!-- Generator: Adobe Illustrator 19.1.0, SVG Export Plug-In . SVG Version: 6.00 Build 0)  -->
<svg version="1.1" id="Capa_1" xmlns="http://www.w3.org/2000/svg" xmlns:xlink="http://www.w3.org/1999/xlink" x="0px" y="0px"
	 viewBox="-185 278 28 45" style="enable-background:new -185 278 28 45;" xml:space="preserve">
<style type="text/css">
	.st0{fill:#2780DA;}
</style>
<path class="st0" d="M-159.8,284.6c0,2.3-1.9,4.2-4.2,4.2s-4.2-1.9-4.2-4.2c0-2.3,1.9-4.2,4.2-4.2S-159.8,282.2-159.8,284.6z
	 M-171,291.3v-10.9c-4,1.1-8,5-8,9.6v7h-4v4h4h5l-5,3v17.1c4-1.2,8-5.8,8-11c0-0.1,0-4.5,0-9.1h4v-4h-4
	C-171,293.8-171,291.3-171,291.3z"/>
</svg>
