<?xml version="1.0" encoding="utf-8"?>
<!-- Generator: Adobe Illustrator 19.1.0, SVG Export Plug-In . SVG Version: 6.00 Build 0)  -->
<svg version="1.1" id="Capa_1" xmlns="http://www.w3.org/2000/svg" xmlns:xlink="http://www.w3.org/1999/xlink" x="0px" y="0px"
	 viewBox="0 0 27 45" style="enable-background:new 0 0 27 45;" xml:space="preserve">
<style type="text/css">
	.st0{fill:url(#SVGID_1_);}
</style>
<linearGradient id="SVGID_1_" gradientUnits="userSpaceOnUse" x1="13.5859" y1="2.3549" x2="13.5859" y2="43.0699">
	<stop  offset="0" style="stop-color:#FFFFFF"/>
	<stop  offset="0.1437" style="stop-color:#F9FAFA"/>
	<stop  offset="0.3319" style="stop-color:#E9EAEC"/>
	<stop  offset="0.5446" style="stop-color:#CED1D5"/>
	<stop  offset="0.7737" style="stop-color:#A8AFB6"/>
	<stop  offset="1" style="stop-color:#7C8690"/>
</linearGradient>
<path class="st0" d="M14,19h4v4h-4c0,4.5,0,9,0,9.1c0,5.2-4,9.8-8,11V23H2v-4h4v-7c0-4.6,4-8.5,8-9.6v10.9C14,13.3,14,15.8,14,19z
	 M21,2.4c-2.3,0-4.2,1.9-4.2,4.2s1.9,4.2,4.2,4.2s4.2-1.9,4.2-4.2S23.3,2.4,21,2.4z"/>
</svg>
