<?xml version="1.0" standalone="no"?>
<!DOCTYPE svg PUBLIC "-//W3C//DTD SVG 20010904//EN"
 "http://www.w3.org/TR/2001/REC-SVG-20010904/DTD/svg10.dtd">
<svg version="1.0" xmlns="http://www.w3.org/2000/svg"
 width="1024.000000pt" height="1024.000000pt" viewBox="0 0 1024.000000 1024.000000"
 preserveAspectRatio="xMidYMid meet">
<metadata>
Created by potrace 1.11, written by Peter Selinger 2001-2013
</metadata>
<g transform="translate(0.000000,1024.000000) scale(0.100000,-0.100000)"
fill="#000000" stroke="none">
<path d="M1277 10233 c-2 -2 -17 -5 -33 -7 -58 -9 -80 -16 -152 -52 -40 -20
-76 -42 -79 -50 -3 -8 -9 -14 -14 -14 -12 0 -89 -77 -89 -89 0 -4 -9 -16 -19
-28 -11 -11 -29 -45 -41 -74 -12 -30 -27 -65 -33 -79 -9 -19 -13 -583 -15
-2216 l-2 -2191 252 94 c139 51 260 96 268 100 8 3 22 7 30 9 8 2 23 8 35 13
11 6 63 27 115 45 52 19 127 47 165 61 39 15 75 28 80 29 6 2 21 7 35 13 14 6
52 20 85 32 33 12 69 26 80 30 46 21 271 101 283 101 6 0 12 4 12 8 0 5 6 9
13 9 6 0 91 30 187 66 96 36 310 115 475 177 165 61 334 124 375 140 41 16
127 47 190 70 63 23 124 46 135 51 11 4 155 58 320 120 646 239 841 311 855
316 8 4 17 7 20 8 3 1 16 6 30 12 14 6 43 16 65 24 22 7 44 17 50 21 5 4 15 8
23 8 8 0 28 6 45 14 18 7 91 35 162 61 72 26 144 53 160 60 34 15 195 75 210
79 14 3 126 45 150 56 26 11 69 24 74 21 2 -2 7 1 10 6 3 5 22 14 41 20 57 18
202 72 237 88 17 8 38 15 46 15 32 0 25 17 -16 40 -23 13 -44 26 -47 30 -3 3
-45 30 -95 59 -49 29 -121 72 -160 96 -38 25 -79 49 -90 54 -11 6 -45 26 -75
46 -30 19 -67 41 -82 47 -16 7 -28 16 -28 20 0 4 -6 8 -14 8 -8 0 -21 6 -28
14 -8 7 -27 21 -43 30 -66 37 -115 66 -312 186 -113 69 -217 132 -232 140 -68
39 -157 95 -169 107 -7 7 -18 13 -23 13 -5 0 -33 16 -63 35 -30 19 -60 35 -66
35 -5 0 -10 5 -10 10 0 6 -7 10 -15 10 -8 0 -15 4 -15 9 0 5 -8 11 -17 14 -10
4 -35 16 -55 29 -150 92 -405 246 -430 260 -16 9 -37 23 -46 31 -9 9 -21 16
-27 17 -5 1 -32 16 -60 33 -80 50 -89 56 -105 64 -8 4 -51 29 -95 56 -237 146
-407 247 -414 247 -5 0 -14 7 -21 15 -7 8 -36 27 -66 42 -30 15 -54 31 -54 35
0 4 -5 8 -10 8 -6 0 -35 16 -65 35 -30 19 -55 31 -55 27 0 -4 -5 1 -11 11 -5
9 -15 17 -20 17 -6 0 -34 15 -62 34 -29 18 -189 116 -357 216 -168 101 -351
212 -408 247 -56 35 -107 63 -112 63 -6 0 -10 3 -10 8 0 4 -17 16 -37 27 -21
10 -57 32 -81 47 -24 15 -47 28 -53 28 -5 0 -9 5 -9 10 0 6 -4 10 -10 10 -5 0
-62 32 -127 71 -117 71 -185 106 -223 115 -11 2 -30 7 -42 10 -26 6 -166 12
-171 7z"/>
<path d="M7769 6410 c-8 -5 -103 -41 -210 -80 -107 -38 -201 -73 -209 -77 -8
-3 -17 -7 -20 -7 -4 -1 -207 -76 -360 -134 -8 -3 -17 -6 -20 -6 -3 -1 -32 -12
-65 -25 -33 -12 -76 -29 -95 -36 -19 -8 -123 -46 -230 -85 -107 -39 -204 -75
-215 -80 -11 -5 -63 -25 -115 -43 -149 -54 -403 -147 -425 -156 -36 -16 -98
-39 -255 -96 -85 -31 -183 -67 -217 -81 -34 -14 -67 -27 -75 -28 -7 -2 -26 -8
-43 -15 -16 -6 -41 -16 -55 -20 -14 -5 -68 -25 -120 -44 -94 -35 -130 -49
-140 -52 -3 -1 -14 -5 -25 -10 -11 -4 -56 -21 -100 -37 -44 -17 -121 -46 -172
-65 -50 -19 -98 -36 -105 -37 -7 -2 -26 -8 -43 -15 -16 -7 -97 -37 -180 -68
-82 -30 -163 -61 -180 -68 -29 -12 -105 -39 -115 -40 -3 0 -10 -3 -15 -7 -6
-4 -40 -17 -75 -29 -36 -12 -76 -26 -90 -32 -14 -6 -29 -11 -35 -12 -5 -2 -50
-18 -100 -38 -49 -19 -142 -54 -205 -77 -63 -23 -126 -46 -140 -52 -14 -5 -56
-21 -95 -34 -38 -14 -82 -32 -97 -40 -16 -8 -28 -12 -28 -8 0 3 -7 1 -15 -6
-8 -7 -15 -10 -15 -7 0 5 -26 -4 -135 -48 -11 -4 -26 -9 -33 -11 -8 -1 -21 -6
-30 -10 -9 -4 -19 -8 -22 -9 -3 -1 -21 -8 -40 -17 -19 -8 -66 -25 -105 -38
-38 -12 -76 -28 -84 -34 -8 -6 -15 -10 -15 -8 -1 2 -14 -2 -31 -8 -16 -7 -37
-13 -45 -15 -8 -2 -51 -17 -95 -35 -44 -17 -88 -33 -97 -35 -10 -2 -32 -10
-50 -18 -53 -24 -232 -90 -245 -90 -7 0 -13 -4 -13 -9 0 -4 -3 -7 -7 -6 -5 1
-48 -13 -98 -31 -49 -19 -126 -47 -170 -62 -44 -16 -89 -33 -100 -38 -29 -13
-58 -24 -75 -27 -8 -2 -23 -7 -35 -13 -11 -5 -114 -44 -230 -87 -115 -42 -221
-81 -235 -87 -14 -6 -29 -11 -35 -13 -5 -1 -45 -15 -87 -32 -42 -16 -79 -27
-82 -24 -3 3 -6 1 -6 -4 0 -5 -9 -10 -21 -11 -52 -4 -49 104 -48 -1697 0
-1421 3 -1679 15 -1726 24 -93 74 -179 144 -250 129 -128 289 -176 485 -145
51 8 177 60 183 76 2 5 7 9 12 9 12 0 184 103 188 112 2 5 8 8 14 8 5 0 29 14
53 30 24 17 46 30 49 30 3 0 30 16 60 35 30 19 57 35 60 35 3 0 25 14 49 30
25 17 50 30 56 30 6 0 11 4 11 8 0 5 15 16 33 25 17 9 53 29 78 44 25 16 124
75 220 133 96 58 176 108 177 112 2 5 8 8 13 8 6 0 35 16 65 35 30 19 59 35
64 35 6 0 10 5 10 10 0 6 6 10 14 10 7 0 19 7 26 15 7 8 16 12 21 9 5 -3 9 -1
9 5 0 5 10 13 23 17 12 4 24 10 27 13 8 11 160 101 170 101 4 0 10 3 12 8 1 4
59 40 128 81 69 41 133 81 143 89 9 8 17 11 17 6 0 -5 5 -2 10 6 5 8 13 15 17
15 8 1 67 36 88 52 14 10 62 38 95 55 14 7 30 16 35 21 24 18 207 127 215 127
4 0 10 3 12 8 4 10 276 172 288 172 6 0 10 4 10 8 0 4 29 24 65 43 36 18 65
37 65 42 0 4 4 7 9 7 5 0 38 18 72 40 35 21 92 55 126 75 34 19 65 40 68 45 4
6 11 8 16 5 5 -4 9 -2 9 2 0 5 21 20 48 33 26 14 49 27 52 30 10 11 261 160
270 160 4 0 10 4 12 8 2 4 96 64 210 132 115 69 219 132 233 140 13 8 75 46
137 83 62 38 120 72 128 78 8 5 44 27 80 48 36 22 108 66 160 98 52 32 106 64
120 71 14 7 33 21 42 29 10 9 18 12 18 7 0 -5 4 -4 8 1 9 13 111 75 123 75 5
0 9 5 9 10 0 6 7 10 15 10 8 0 15 4 15 8 0 5 16 14 35 22 19 8 35 18 35 22 0
5 4 7 9 4 5 -4 11 -2 13 2 3 7 67 48 159 102 82 48 175 105 179 110 3 4 20 13
38 21 17 8 32 17 32 21 0 5 7 8 15 8 8 0 15 4 15 9 0 5 6 11 13 13 6 2 90 50
185 108 95 58 185 111 200 119 15 8 29 17 32 20 3 3 21 15 40 25 19 11 37 22
40 25 3 3 25 17 50 30 25 13 50 28 57 33 25 20 126 78 134 78 5 0 9 5 9 10 0
6 5 10 10 10 6 0 29 12 53 27 23 15 51 32 62 39 35 19 686 414 768 465 43 27
82 49 87 49 6 0 10 5 10 10 0 6 4 10 9 10 5 0 38 18 72 39 35 22 100 61 144
87 44 26 96 57 115 69 19 12 39 22 44 23 5 0 12 4 15 9 9 12 111 73 122 73 5
0 9 4 9 9 0 5 10 13 21 16 29 9 160 142 179 180 8 17 21 41 29 54 9 13 16 29
17 35 1 6 9 38 19 70 24 81 25 177 3 266 -10 41 -20 80 -21 86 -2 7 -7 18 -13
25 -5 8 -18 32 -29 53 -29 56 -142 167 -200 196 -46 23 -105 58 -130 77 -5 5
-21 14 -35 21 -14 7 -38 21 -55 32 -16 11 -37 23 -45 27 -8 3 -34 19 -57 35
-24 16 -43 25 -43 21 0 -4 -4 -3 -8 2 -11 16 -87 65 -100 65 -7 0 -12 5 -12
10 0 6 -5 10 -11 10 -6 0 -29 13 -52 28 -23 16 -49 32 -57 35 -8 4 -35 20 -60
36 -51 33 -147 92 -170 104 -8 4 -28 16 -45 27 -16 11 -46 29 -65 40 -19 11
-48 29 -65 40 -16 11 -37 23 -45 27 -8 4 -55 32 -105 63 -154 96 -179 109
-196 100z"/>
</g>
</svg>
