<?xml version="1.0" standalone="no"?>
<!DOCTYPE svg PUBLIC "-//W3C//DTD SVG 20010904//EN"
 "http://www.w3.org/TR/2001/REC-SVG-20010904/DTD/svg10.dtd">
<svg version="1.0" xmlns="http://www.w3.org/2000/svg"
 width="16.000000pt" height="16.000000pt" viewBox="0 0 16.000000 16.000000"
 preserveAspectRatio="xMidYMid meet">
<metadata>
Created by potrace 1.11, written by Peter Selinger 2001-2013
</metadata>
<g transform="translate(0.000000,16.000000) scale(0.004408,-0.004408)"
fill="#000000" stroke="none">
<path d="M1776 3348 c-9 -13 -14 -16 -9 -8 7 15 -34 -19 -85 -70 -14 -14 -21
-19 -17 -11 5 8 -10 0 -33 -19 -23 -18 -42 -37 -42 -42 0 -4 -6 -8 -14 -8 -8
0 -21 -8 -28 -19 -7 -10 -15 -18 -18 -17 -7 1 -30 -18 -76 -61 -19 -17 -34
-29 -34 -27 0 8 -86 -41 -97 -56 -7 -8 -13 -12 -13 -8 0 4 -10 -3 -23 -15 -13
-12 -37 -31 -53 -42 -36 -25 -84 -74 -84 -87 0 -5 -4 -7 -9 -4 -5 3 -11 -1
-15 -9 -3 -8 -13 -15 -21 -15 -9 0 -13 -4 -10 -10 3 -5 -1 -10 -9 -10 -9 0
-16 -4 -16 -9 0 -5 -8 -12 -17 -15 -10 -3 -34 -21 -53 -39 -19 -18 -55 -48
-80 -66 -25 -19 -49 -39 -55 -45 -5 -6 -28 -24 -50 -40 -22 -16 -47 -37 -56
-45 -9 -9 -29 -25 -45 -36 -15 -11 -36 -28 -46 -37 -10 -10 -21 -18 -25 -18
-4 0 -16 -9 -28 -19 -57 -55 -77 -71 -85 -71 -5 0 -16 -10 -24 -22 -9 -12 -16
-18 -16 -13 0 5 -14 -7 -31 -26 -18 -19 -28 -27 -24 -19 4 8 -7 2 -26 -15 -61
-54 -68 -60 -83 -72 -8 -7 -20 -13 -26 -13 -6 0 -8 -4 -5 -10 3 -5 -1 -10 -9
-10 -9 0 -16 -4 -16 -9 0 -5 -8 -12 -17 -15 -10 -3 -35 -22 -55 -41 -20 -19
-39 -35 -43 -35 -7 0 -74 -51 -115 -87 -13 -13 -28 -23 -32 -23 -8 0 -5 -27 4
-36 4 -3 4 -12 2 -19 -3 -7 0 -16 5 -20 6 -3 9 -11 6 -16 -4 -5 -2 -9 4 -9 6
0 8 -7 5 -15 -4 -8 -2 -15 2 -15 5 0 10 -14 11 -32 1 -17 6 -34 10 -37 5 -3
10 -17 11 -31 2 -14 8 -30 13 -36 5 -6 6 -14 2 -17 -3 -4 -2 -7 3 -7 5 0 10
-8 11 -17 2 -32 14 -77 24 -89 5 -6 6 -14 2 -17 -3 -4 -1 -7 6 -7 7 0 10 -4 7
-9 -4 -5 -1 -22 6 -38 6 -15 10 -32 9 -37 -1 -4 3 -14 9 -20 5 -7 7 -16 3 -19
-3 -4 -1 -7 6 -7 7 0 9 -5 6 -10 -4 -6 -1 -17 5 -25 7 -8 10 -15 6 -15 -3 0 1
-16 9 -36 8 -20 15 -45 15 -55 0 -11 5 -19 11 -19 5 0 8 -4 5 -9 -4 -5 -1 -22
5 -38 11 -26 14 -34 22 -65 2 -7 10 -33 17 -58 8 -25 14 -47 15 -50 3 -14 28
-86 33 -95 3 -5 7 -23 9 -39 2 -17 7 -32 11 -35 4 -4 9 -17 11 -31 1 -14 6
-27 10 -30 3 -3 8 -18 10 -35 1 -16 7 -35 12 -41 5 -6 11 -21 13 -35 3 -13 5
-25 7 -26 1 -2 3 -7 4 -13 1 -5 4 -12 5 -15 1 -3 4 -9 5 -15 1 -5 3 -11 5 -12
1 -2 3 -11 6 -20 2 -10 6 -26 8 -35 3 -10 5 -19 6 -20 2 -2 4 -7 5 -13 1 -5 3
-11 5 -12 2 -4 7 -24 15 -63 3 -16 11 -35 17 -42 6 -7 7 -13 4 -13 -4 0 -1
-10 5 -22 15 -27 21 -68 10 -68 -4 0 -12 5 -19 12 -9 9 -12 9 -12 1 0 -7 5
-15 10 -18 6 -4 8 -11 5 -16 -4 -5 509 -9 1333 -9 1183 0 1339 2 1339 15 0 8
-4 15 -9 15 -6 0 -5 30 2 50 2 3 2 8 1 13 0 4 3 7 8 7 5 0 8 8 7 18 -2 9 1 20
5 23 5 3 10 17 11 32 1 15 5 27 9 27 4 0 6 8 4 17 -1 10 1 23 5 28 8 10 31 77
34 98 1 7 5 18 9 24 5 7 5 17 2 23 -3 5 -1 10 4 10 6 0 10 3 9 8 -1 4 4 24 11
45 7 21 14 46 16 55 2 9 4 18 5 20 2 1 3 5 4 10 2 4 10 32 19 62 9 30 17 58
17 63 0 4 7 21 15 37 9 17 13 30 11 30 -3 0 1 15 9 34 8 18 16 44 19 57 2 13
11 43 20 67 8 23 15 43 15 45 0 1 2 9 5 17 7 20 50 163 52 173 1 4 2 8 4 10 1
1 3 9 5 17 2 8 10 34 19 58 8 23 13 42 10 42 -2 0 2 14 11 30 9 17 13 30 11
30 -3 0 2 16 10 35 8 19 11 35 8 35 -4 0 -1 7 6 15 7 8 9 15 5 15 -4 0 -2 7 5
15 6 8 9 18 6 24 -3 5 -2 11 3 13 6 1 11 14 13 28 2 14 7 31 11 38 5 6 5 17 2
22 -3 5 -1 10 5 10 7 0 10 7 6 15 -3 8 -2 15 3 15 4 0 9 24 10 53 l1 54 -72
57 c-40 31 -77 58 -82 59 -5 1 -30 21 -55 44 -25 23 -47 40 -49 38 -3 -3 -35
25 -87 75 -12 11 -26 20 -33 20 -7 0 -12 5 -12 10 0 6 -7 10 -16 10 -8 0 -12
5 -9 10 3 6 2 10 -4 10 -6 0 -26 15 -46 33 -19 17 -40 32 -45 32 -6 0 -9 3 -7
7 3 8 -48 48 -61 48 -5 0 -13 7 -16 16 -4 9 -9 14 -12 11 -3 -3 -19 9 -35 25
-16 17 -29 27 -29 23 0 -5 -6 0 -14 11 -8 10 -19 19 -25 19 -6 0 -12 5 -13 10
-2 12 -43 45 -56 45 -5 0 -13 7 -16 16 -4 9 -9 14 -12 11 -3 -3 -18 8 -33 24
-16 16 -33 29 -39 29 -5 0 -13 7 -16 16 -4 9 -9 14 -13 11 -3 -4 -15 5 -25 19
-11 14 -23 23 -26 20 -3 -3 -11 3 -19 14 -8 11 -21 20 -30 20 -9 0 -13 3 -10
7 7 6 -20 30 -36 31 -4 1 -21 14 -37 29 -45 43 -58 53 -70 53 -5 0 -10 4 -10
8 0 4 -12 15 -27 24 -16 9 -38 25 -49 35 -12 10 -41 34 -65 53 -23 19 -51 43
-61 53 -10 9 -18 15 -18 13 0 -2 -15 10 -33 27 -18 18 -48 43 -66 57 -18 13
-45 35 -59 47 -41 36 -51 43 -57 43 -3 0 -16 10 -29 23 -12 12 -37 33 -56 47
-18 14 -42 33 -53 43 -30 25 -90 23 -111 -5z"/>
</g>
</svg>
