<?xml version="1.0" standalone="no"?>
<!DOCTYPE svg PUBLIC "-//W3C//DTD SVG 20010904//EN"
 "http://www.w3.org/TR/2001/REC-SVG-20010904/DTD/svg10.dtd">
<svg version="1.0" xmlns="http://www.w3.org/2000/svg"
 width="1000.000000pt" height="1000.000000pt" viewBox="0 0 1000.000000 1000.000000"
 preserveAspectRatio="xMidYMid meet">
<metadata>
Created by potrace 1.11, written by Peter Selinger 2001-2013
</metadata>
<g transform="translate(0.000000,1000.000000) scale(0.100000,-0.100000)"
fill="#000000" stroke="none">
<path d="M2416 9759 c-14 -59 -97 -815 -111 -999 -18 -253 -26 -663 -15 -870
4 -85 7 -156 6 -157 -4 -5 -126 158 -182 242 -128 192 -184 301 -345 677 -120
279 -139 319 -139 285 0 -9 -16 -146 -35 -305 -63 -530 -75 -700 -76 -1061 0
-440 35 -758 117 -1086 134 -534 380 -969 744 -1318 306 -294 669 -520 1315
-819 94 -43 169 -81 168 -86 -107 -481 -149 -770 -248 -1697 -58 -536 -110
-973 -118 -981 -2 -3 -105 -21 -228 -40 -269 -42 -394 -66 -514 -100 -195 -55
-318 -140 -370 -255 -25 -56 -27 -70 -23 -148 3 -56 13 -107 28 -145 43 -112
236 -373 358 -484 174 -159 324 -216 470 -178 242 62 393 350 506 965 14 73
26 135 28 136 2 1 57 12 123 25 429 81 843 219 1214 406 366 184 623 366 887
629 406 405 682 883 914 1585 68 206 102 319 269 920 103 369 169 575 248 770
192 477 454 796 804 980 l84 45 134 3 c180 5 453 -25 791 -86 58 -11 106 -18
108 -17 2 2 -160 101 -360 220 l-363 217 -51 106 c-160 332 -556 780 -866 978
-565 362 -1209 294 -1818 -195 -200 -160 -423 -396 -615 -651 -48 -63 -91
-119 -95 -124 -5 -5 -191 64 -430 159 -764 303 -1082 487 -1411 815 -75 74
-164 171 -199 215 -151 191 -316 473 -420 720 -23 55 -94 239 -156 409 -63
170 -116 311 -118 314 -3 2 -7 -6 -10 -19z m352 -1421 c222 -328 512 -605 872
-831 249 -157 519 -281 1150 -530 386 -153 513 -208 700 -303 299 -152 504
-298 716 -509 281 -279 477 -588 642 -1010 l51 -130 -90 -325 c-164 -593 -257
-870 -399 -1180 -144 -315 -349 -628 -558 -851 l-69 -73 -7 84 c-27 311 -108
605 -236 860 -124 247 -260 429 -490 660 -174 175 -306 287 -655 558 -467 362
-634 503 -829 698 -614 615 -910 1303 -987 2294 -12 161 -15 698 -4 816 l7 75
67 -113 c37 -62 90 -147 119 -190z m4427 -308 c208 -57 394 -167 584 -346 100
-94 280 -297 365 -412 62 -83 156 -238 156 -257 0 -6 -44 -30 -98 -53 -520
-226 -869 -651 -1127 -1368 l-47 -131 -72 141 c-182 357 -415 659 -697 900
-199 170 -380 288 -655 428 l-181 92 75 100 c384 507 809 826 1222 917 120 26
360 21 475 -11z m-5159 -430 c38 -47 124 -141 193 -210 l124 -125 18 -100 c90
-493 268 -947 525 -1337 133 -202 272 -368 483 -579 218 -217 368 -345 766
-654 223 -173 399 -313 449 -356 5 -5 -60 26 -145 69 -85 42 -296 142 -469
221 -518 237 -782 375 -1014 531 -685 459 -1039 1076 -1142 1990 -18 156 -30
655 -20 782 l8 86 78 -116 c43 -64 109 -155 146 -202z m2430 -3618 c462 -252
714 -486 875 -811 101 -205 155 -447 160 -711 l2 -105 -69 -53 c-348 -266
-928 -518 -1456 -631 -78 -17 -153 -34 -166 -36 -19 -5 -22 -2 -17 17 7 34 48
389 105 923 88 817 157 1302 220 1537 l10 37 113 -53 c62 -30 163 -81 223
-114z m-1041 -2843 c-75 -371 -168 -593 -264 -630 -31 -12 -81 4 -141 45 -138
94 -380 410 -380 495 0 78 144 128 579 200 125 21 227 34 229 30 2 -5 -9 -68
-23 -140z"/>
</g>
</svg>
